# xmcd CD database file
# Copyright (C) 1996 Ti Kan
#
# Track frame offsets:
# 	150
# 	10845
# 	23807
# 	36380
# 	46530
# 	60777
# 	82470
# 	93002
# 	106545
# 	119342
# 	136447
# 	149830
#
# Disc length: 2171 seconds
#
# Revision: 1
# Processed by: cddbd v1.4b41PL1 Copyright (c) Steve Scherf et al.
# Submitted via: DiscPlay 3.3.1
#
DISCID=9608790c
DTITLE=Connie Francis - Among My Souvenirs
DYEAR=1900
DGENRE=
TTITLE0=My Happiness
TTITLE1=If I Didn't Care
TTITLE2=Together
TTITLE3=Who's Sorry Now
TTITLE4=Are You Lonesome Tonight
TTITLE5=Torn Between Two Lovers
TTITLE6=Among My Souvenirs
TTITLE7=Cry
TTITLE8=Cryin' Time Again
TTITLE9=Hurt
TTITLE10=Don't Break A Heart That Loves You
TTITLE11=Misty Blue
EXTD=
EXTT0=
EXTT1=
EXTT2=
EXTT3=
EXTT4=
EXTT5=
EXTT6=
EXTT7=
EXTT8=
EXTT9=
EXTT10=
EXTT11=
PLAYORDER=
